<svg xmlns="http://www.w3.org/2000/svg" viewBox="0 0 849 248" width="849" height="248"><rect width="849" height="248" fill="#f2f4ff"/><path d="M0 0h260c-50 70-145 25-198 105S15 213 0 248z" fill="#e7eaff"/><text x="187" y="80" fill="#222" font-family="monospace" font-size="14">LIMITED OFFER!</text><text x="90" y="119" fill="#ff7a00" font-family="Arial" font-size="38" font-weight="700">Online Shopping</text><text x="187" y="149" fill="#333" font-family="monospace" font-size="15">GET UP TO 40%</text><rect x="505" y="35" width="130" height="60" rx="5" fill="#ff8a18"/><rect x="505" y="35" width="130" height="13" fill="#6b80c5"/><text x="547" y="75" fill="#3653a3" font-family="Arial" font-size="24" font-weight="700">BUY</text><path d="M565 82l-55 15 35 18z" fill="#3653a3"/><g fill="#4a5fa8"><path d="M70 198c30-70 60-60 85 0"/><path d="M150 205c20-50 45-45 70 0"/></g><g fill="#ffb229"><rect x="252" y="176" width="27" height="42"/><rect x="295" y="152" width="50" height="68" rx="4"/></g><g fill="#e84e65"><rect x="175" y="173" width="43" height="50"/><rect x="350" y="166" width="43" height="55" rx="5"/></g><path d="M700 208c-50-28-26-80 31-102 40-15 54 10 70 49" fill="#bb4a2d"/><path d="M650 136c43 15 75 27 118 66" stroke="#f2b43f" stroke-width="42" fill="none" stroke-linecap="round"/><rect x="625" y="146" width="95" height="65" rx="5" fill="#4965b1"/><circle cx="672" cy="178" r="10" fill="#7890d5"/><text x="346" y="244" font-size="12" fill="#333">shutterstock.com · 2252124451</text></svg>
